<svg width="39" height="39" viewBox="0 0 39 39" fill="none" xmlns="http://www.w3.org/2000/svg">
<circle cx="19.5" cy="19.5" r="19.5" fill="#DCD7B3"/>
<path d="M19.5001 11.4073C22.2769 11.4073 22.6048 11.4171 23.7008 11.4685C24.7136 11.515 25.2641 11.6838 25.6311 11.8257C26.1155 12.0141 26.4629 12.2391 26.8274 12.6037C27.1919 12.9682 27.417 13.3132 27.6054 13.8C27.7473 14.167 27.9161 14.7174 27.9626 15.7303C28.0115 16.8263 28.0237 17.1566 28.0237 19.9309C28.0237 22.7053 28.014 23.0355 27.9626 24.1316C27.9161 25.1444 27.7473 25.6949 27.6054 26.0618C27.417 26.5463 27.1919 26.8937 26.8274 27.2582C26.4629 27.6227 26.1179 27.8478 25.6311 28.0362C25.2641 28.1781 24.7136 28.3469 23.7008 28.3934C22.6048 28.4423 22.2769 28.4545 19.5001 28.4545C16.7234 28.4545 16.3955 28.4447 15.2995 28.3934C14.2867 28.3469 13.7362 28.1781 13.3692 28.0362C12.8848 27.8478 12.5374 27.6227 12.1729 27.2582C11.8084 26.8937 11.5833 26.5487 11.3949 26.0618C11.253 25.6949 11.0842 25.1444 11.0377 24.1316C10.9888 23.0355 10.9766 22.7053 10.9766 19.9309C10.9766 17.1566 10.9863 16.8263 11.0377 15.7303C11.0842 14.7174 11.253 14.167 11.3949 13.8C11.5833 13.3156 11.8084 12.9682 12.1729 12.6037C12.5374 12.2391 12.8824 12.0141 13.3692 11.8257C13.7362 11.6838 14.2867 11.515 15.2995 11.4685C16.3955 11.4196 16.7258 11.4073 19.5001 11.4073ZM19.5001 9.53333C16.6769 9.53333 16.3222 9.54556 15.2139 9.59693C14.1081 9.64831 13.3521 9.82201 12.6891 10.0813C12.0065 10.348 11.4267 10.7027 10.8469 11.2801C10.2695 11.8575 9.91233 12.4373 9.64811 13.1223C9.39123 13.7829 9.21508 14.5389 9.16371 15.6471C9.11233 16.7554 9.1001 17.1101 9.1001 19.9334C9.1001 22.7566 9.11233 23.1114 9.16371 24.2196C9.21508 25.3255 9.38878 26.0814 9.64811 26.7444C9.91478 27.427 10.2695 28.0068 10.8469 28.5866C11.4243 29.164 12.0041 29.5212 12.6891 29.7854C13.3497 30.0423 14.1056 30.2184 15.2139 30.2698C16.3222 30.3212 16.6769 30.3334 19.5001 30.3334C22.3234 30.3334 22.6781 30.3212 23.7864 30.2698C24.8922 30.2184 25.6482 30.0447 26.3112 29.7854C26.9938 29.5187 27.5736 29.164 28.1534 28.5866C28.7308 28.0093 29.088 27.4294 29.3522 26.7444C29.6091 26.0839 29.7852 25.3279 29.8366 24.2196C29.888 23.1114 29.9002 22.7566 29.9002 19.9334C29.9002 17.1101 29.888 16.7554 29.8366 15.6471C29.7852 14.5413 29.6115 13.7853 29.3522 13.1223C29.0855 12.4398 28.7308 11.8599 28.1534 11.2801C27.576 10.7027 26.9962 10.3456 26.3112 10.0813C25.6506 9.82446 24.8947 9.64831 23.7864 9.59693C22.6781 9.54556 22.3234 9.53333 19.5001 9.53333Z" fill="#4F4F4F"/>
<path d="M19.5004 14.5925C16.5523 14.5925 14.1621 16.9828 14.1621 19.9308C14.1621 22.8788 16.5523 25.269 19.5004 25.269C22.4484 25.269 24.8386 22.8788 24.8386 19.9308C24.8386 16.9828 22.4484 14.5925 19.5004 14.5925ZM19.5004 23.3975C17.5872 23.3975 16.0337 21.8464 16.0337 19.9308C16.0337 18.0152 17.5848 16.4641 19.5004 16.4641C21.416 16.4641 22.967 18.0152 22.967 19.9308C22.967 21.8464 21.416 23.3975 19.5004 23.3975Z" fill="#4F4F4F"/>
<path d="M25.0514 15.6275C25.7405 15.6275 26.2991 15.0689 26.2991 14.3798C26.2991 13.6907 25.7405 13.1321 25.0514 13.1321C24.3623 13.1321 23.8037 13.6907 23.8037 14.3798C23.8037 15.0689 24.3623 15.6275 25.0514 15.6275Z" fill="#4F4F4F"/>
</svg>
