<svg width="39" height="39" viewBox="0 0 39 39" fill="none" xmlns="http://www.w3.org/2000/svg">
<g clip-path="url(#clip0_6122_1497)">
<path d="M39 19.5C39 8.73022 30.2698 0 19.5 0C8.73022 0 0 8.73022 0 19.5C0 29.2327 7.12978 37.3013 16.4522 38.7631L19.5 39L22.5478 38.7631C31.8702 37.3013 39 29.2327 39 19.5Z" fill="#DCD7B3"/>
<g clip-path="url(#clip1_6122_1497)">
<path d="M14.3034 14.5178H10.1499V27.9436H14.3034V14.5178Z" fill="#4F4F4F"/>
<path d="M12.207 12.753C13.5623 12.753 14.664 11.6415 14.664 10.2765C14.664 8.91155 13.5623 7.80005 12.207 7.80005C10.8518 7.80005 9.75 8.91155 9.75 10.2765C9.75 11.6415 10.8518 12.753 12.207 12.753Z" fill="#4F4F4F"/>
<path d="M20.9526 20.8943C20.9526 19.0028 21.8203 17.8815 23.4876 17.8815C25.0183 17.8815 25.7496 18.9638 25.7496 20.8943V27.9435H29.8836V19.4415C29.8836 15.8438 27.8458 14.1083 24.9988 14.1083C22.1518 14.1083 20.9526 16.3313 20.9526 16.3313V14.5178H16.9648V27.9435H20.9526V20.8943Z" fill="#4F4F4F"/>
</g>
</g>
<defs>
<clipPath id="clip0_6122_1497">
<rect width="39" height="39" fill="white"/>
</clipPath>
<clipPath id="clip1_6122_1497">
<rect width="20.1337" height="20.1435" fill="white" transform="translate(9.75 7.80005)"/>
</clipPath>
</defs>
</svg>
