<svg width="39" height="39" viewBox="0 0 39 39" fill="none" xmlns="http://www.w3.org/2000/svg">
<g clip-path="url(#clip0_6122_1510)">
<path d="M39 19.5C39 8.73022 30.2698 0 19.5 0C8.73022 0 0 8.73022 0 19.5C0 29.2327 7.12978 37.3013 16.4522 38.7631L19.5 39L22.5478 38.7631C31.8702 37.3013 39 29.2327 39 19.5Z" fill="#DCD7B3"/>
<path d="M24.062 20.5597L24.5668 17.291H21.4063V15.1699C21.4063 14.2753 21.8469 13.404 23.2634 13.404H24.7002V10.6212C24.7002 10.6212 23.3968 10.4 22.1492 10.4C19.5458 10.4 17.844 11.9649 17.844 14.7997V17.291H14.9502V20.5597H17.844V28.4626C18.4247 28.5531 19.019 28.6 19.6251 28.6C20.2312 28.6 20.8255 28.5531 21.4063 28.4626V20.5597H24.062Z" fill="#4F4F4F"/>
</g>
<defs>
<clipPath id="clip0_6122_1510">
<rect width="39" height="39" fill="white"/>
</clipPath>
</defs>
</svg>
